<svg width="70" height="24" viewBox="0 0 70 24" fill="none" xmlns="http://www.w3.org/2000/svg">
<path d="M33.7227 16.8398C33.7578 16.7578 33.7871 16.4648 33.8105 15.9609C33.834 15.4453 33.8457 14.8359 33.8457 14.1328V11.5664C33.8457 10.8281 33.834 10.207 33.8105 9.70312C33.7871 9.1875 33.7578 8.90039 33.7227 8.8418L32.5977 8.54297L32.6504 7.68164H37.6426C38.8848 7.68164 39.8047 7.88672 40.4023 8.29688C41.0117 8.70703 41.3164 9.32812 41.3164 10.1602C41.3164 10.8047 41.0352 11.3438 40.4727 11.7773C39.9219 12.2109 39.1895 12.457 38.2754 12.5156L38.3809 12.375C39.4941 12.4219 40.3496 12.6738 40.9473 13.1309C41.5449 13.5879 41.8438 14.2031 41.8438 14.9766C41.8438 15.9258 41.4395 16.6699 40.6309 17.209C39.834 17.7363 38.7148 18 37.2734 18H32.6504L32.5977 17.1211L33.7227 16.8398ZM36.2012 14.8887C36.2012 15.3574 36.207 15.7676 36.2188 16.1191C36.2305 16.459 36.2422 16.6934 36.2539 16.8223C36.3711 16.8691 36.5352 16.9102 36.7461 16.9453C36.957 16.9688 37.1504 16.9805 37.3262 16.9805C37.959 16.9805 38.4453 16.8281 38.7852 16.5234C39.1367 16.207 39.3125 15.7734 39.3125 15.2227C39.3125 14.5547 39.125 14.0684 38.75 13.7637C38.375 13.4473 37.7832 13.2891 36.9746 13.2891C36.7754 13.2891 36.5996 13.2891 36.4473 13.2891C36.2949 13.2891 36.1367 13.3008 35.9727 13.3242V12.1641C36.1484 12.1758 36.3008 12.1875 36.4297 12.1992C36.5703 12.1992 36.7227 12.1992 36.8867 12.1992C37.5195 12.1992 37.9941 12.0469 38.3105 11.7422C38.627 11.4258 38.7852 10.9746 38.7852 10.3887C38.7852 9.86133 38.627 9.44531 38.3105 9.14062C38.0059 8.82422 37.5312 8.66602 36.8867 8.66602H36.2363C36.2246 8.77148 36.2129 9.02344 36.2012 9.42188C36.2012 9.80859 36.2012 10.2656 36.2012 10.793V14.8887ZM45.9043 18.1406C45.3652 18.1406 44.8965 18.0234 44.498 17.7891C44.1113 17.5547 43.8125 17.2734 43.6016 16.9453C43.4023 16.6172 43.3027 16.3066 43.3027 16.0137C43.3027 15.5801 43.4316 15.2227 43.6895 14.9414C43.959 14.6602 44.3691 14.4375 44.9199 14.2734L47.6797 13.4648V12.832C47.6797 12.5859 47.5977 12.3574 47.4336 12.1465C47.2812 11.9238 47.0762 11.7422 46.8184 11.6016C46.5605 11.4609 46.2852 11.3906 45.9922 11.3906C45.8047 11.3906 45.6699 11.4375 45.5879 11.5312C45.5176 11.6133 45.4707 11.7832 45.4473 12.041L45.3594 13.1133C44.7734 13.2305 44.293 13.2129 43.918 13.0605C43.5547 12.8965 43.373 12.6328 43.373 12.2695C43.373 12.0469 43.4902 11.8184 43.7246 11.584C43.959 11.3496 44.2461 11.1328 44.5859 10.9336C44.9375 10.7227 45.2949 10.5469 45.6582 10.4062C46.0215 10.2539 46.3438 10.166 46.625 10.1426C47.6562 10.1426 48.4766 10.3828 49.0859 10.8633C49.707 11.332 50.0176 11.9648 50.0176 12.7617L49.9648 15.2051C49.9648 15.5332 49.9707 15.791 49.9824 15.9785C50.0059 16.1543 50.0469 16.3008 50.1055 16.418L51.248 16.6289V17.3672L50.1055 17.877C49.9062 17.959 49.7129 18.0234 49.5254 18.0703C49.3496 18.1172 49.1797 18.1406 49.0156 18.1406C48.5586 18.1406 48.2363 17.9062 48.0488 17.4375L47.75 16.6289L48.1191 16.7168C47.7559 17.1621 47.3809 17.5137 46.9941 17.7715C46.6191 18.0176 46.2559 18.1406 45.9043 18.1406ZM46.8008 16.5586C46.9648 16.5586 47.123 16.5293 47.2754 16.4707C47.4277 16.4004 47.5684 16.3008 47.6973 16.1719V14.4492L46.502 14.6602C46.2207 14.707 46.0156 14.8008 45.8867 14.9414C45.7578 15.082 45.6934 15.2637 45.6934 15.4863C45.6934 15.7676 45.7988 16.0195 46.0098 16.2422C46.2324 16.4531 46.4961 16.5586 46.8008 16.5586ZM55.959 18.1406C55.209 18.1406 54.5352 17.9824 53.9375 17.666C53.3516 17.3379 52.877 16.8867 52.5137 16.3125C52.1621 15.7266 51.9863 15.0645 51.9863 14.3262C51.9863 13.5879 52.1738 12.9023 52.5488 12.2695C52.9238 11.625 53.4395 11.1094 54.0957 10.7227C54.752 10.3359 55.5078 10.1426 56.3633 10.1426C56.8789 10.1426 57.3418 10.2129 57.752 10.3535C58.1738 10.4824 58.502 10.6699 58.7363 10.916C58.9824 11.1621 59.1055 11.4375 59.1055 11.7422C59.1055 12.0352 59.0117 12.2578 58.8242 12.4102C58.6484 12.5625 58.4375 12.6387 58.1914 12.6387C57.957 12.6387 57.752 12.5977 57.5762 12.5156C57.4121 12.4336 57.2246 12.2988 57.0137 12.1113L55.7129 10.9688L56.6094 11.1797C56.2695 11.0977 55.9297 11.1445 55.5898 11.3203C55.2617 11.4961 54.9922 11.7891 54.7812 12.1992C54.5703 12.5977 54.4648 13.1016 54.4648 13.7109C54.4648 14.6016 54.6816 15.2812 55.1152 15.75C55.5605 16.207 56.1055 16.4355 56.75 16.4355C57.0898 16.4355 57.418 16.3652 57.7344 16.2246C58.0508 16.0723 58.3672 15.8145 58.6836 15.4512L59.2285 15.9609C58.9004 16.6758 58.4375 17.2207 57.8398 17.5957C57.2539 17.959 56.627 18.1406 55.959 18.1406ZM59.8086 18L59.7559 17.1914L60.7578 16.8926C60.7812 16.7402 60.7988 16.5 60.8105 16.1719C60.8223 15.8438 60.834 15.4805 60.8457 15.082C60.8574 14.6719 60.8633 14.2793 60.8633 13.9043V11.6543C60.8633 11.2324 60.8574 10.8223 60.8457 10.4238C60.8457 10.0137 60.8398 9.62695 60.8281 9.26367C60.8281 8.90039 60.8223 8.57227 60.8105 8.2793C60.7988 7.97461 60.7871 7.72852 60.7754 7.54102L59.4746 7.36523L59.4395 6.60938L62.7617 5.74805L63.2539 6.04688C63.2305 6.375 63.2129 6.70313 63.2012 7.03125C63.1895 7.35937 63.1777 7.71094 63.166 8.08594C63.1543 8.46094 63.1484 8.90039 63.1484 9.4043C63.1484 9.9082 63.1484 10.5059 63.1484 11.1973L63.1309 15.1699C63.1309 15.4277 63.1309 15.6797 63.1309 15.9258C63.1426 16.1602 63.1543 16.3652 63.166 16.541C63.1777 16.7051 63.1836 16.8223 63.1836 16.8926L64.2734 17.1914L64.2207 18H59.8086ZM69.2656 18H66.2949C66.1191 17.7539 65.9551 17.543 65.8027 17.3672C65.6621 17.1797 65.5156 16.998 65.3633 16.8223L63.3242 14.5195H62.8848L62.9023 13.8691L63.4297 13.7461L66.0137 11.3027L64.8535 11.1094L64.9062 10.2832H68.8086L68.8613 11.1094L67.7012 11.3203L64.8008 13.7461L64.9941 12.9375L67.6836 16.0137C67.9062 16.2715 68.0996 16.4883 68.2637 16.6641C68.4395 16.8398 68.5684 16.9688 68.6504 17.0508L69.3184 17.1914L69.2656 18Z" fill="black"/>
<path d="M19 12H5" stroke="black" stroke-linecap="round" stroke-linejoin="round"/>
<path d="M12 19L5 12L12 5" stroke="black" stroke-linecap="round" stroke-linejoin="round"/>
</svg>
