<svg width="129" height="24" viewBox="0 0 129 24" fill="none" xmlns="http://www.w3.org/2000/svg">
<path d="M33.4609 18.377C33.4896 17.9043 33.5039 17.4245 33.5039 16.9375C33.5182 16.4362 33.5254 15.9277 33.5254 15.4121C33.5397 14.8822 33.5469 14.3594 33.5469 13.8438V11.2441C33.5469 10.5853 33.5397 9.98372 33.5254 9.43945C33.5254 8.88086 33.5182 8.39388 33.5039 7.97852C33.4896 7.54883 33.4753 7.18359 33.4609 6.88281C33.4609 6.58203 33.4538 6.35286 33.4395 6.19531L31.8496 6.00195L31.8066 5.07812L35.8672 4.02539L36.4688 4.39062C36.4401 4.97786 36.4115 5.5651 36.3828 6.15234C36.3542 6.72526 36.3327 7.39128 36.3184 8.15039C36.304 8.90951 36.2826 9.85482 36.2539 10.9863L36.3184 11.0078C36.6191 10.5781 37.0345 10.2057 37.5645 9.89062C38.0944 9.5612 38.6458 9.39648 39.2188 9.39648C39.9349 9.39648 40.5938 9.57552 41.1953 9.93359C41.8112 10.2773 42.3053 10.7786 42.6777 11.4375C43.0645 12.082 43.2578 12.8626 43.2578 13.7793C43.2578 14.7676 43.0215 15.6699 42.5488 16.4863C42.0762 17.3027 41.3958 17.9544 40.5078 18.4414C39.6341 18.9284 38.6029 19.1719 37.4141 19.1719C36.7266 19.1719 36.0534 19.1074 35.3945 18.9785C34.75 18.8353 34.1055 18.6348 33.4609 18.377ZM37.9512 17.5605C38.61 17.5605 39.1543 17.3171 39.584 16.8301C40.028 16.3288 40.25 15.5195 40.25 14.4023C40.2643 13.3568 40.0352 12.6048 39.5625 12.1465C39.1042 11.6738 38.5742 11.4375 37.9727 11.4375C37.6432 11.4375 37.3353 11.502 37.0488 11.6309C36.7624 11.7598 36.5117 11.9388 36.2969 12.168V17.0234C36.5117 17.181 36.7624 17.3099 37.0488 17.4102C37.3496 17.5104 37.6504 17.5605 37.9512 17.5605ZM49.7891 19.1719C48.7865 19.1719 47.9056 18.9714 47.1465 18.5703C46.3874 18.1549 45.793 17.5892 45.3633 16.873C44.9336 16.1426 44.7188 15.3118 44.7188 14.3809C44.7188 13.321 44.9622 12.4186 45.4492 11.6738C45.9362 10.929 46.5736 10.3633 47.3613 9.97656C48.1491 9.58984 48.987 9.39648 49.875 9.39648C50.8346 9.39648 51.6725 9.59701 52.3887 9.99805C53.1191 10.3991 53.6849 10.9648 54.0859 11.6953C54.5013 12.4115 54.709 13.235 54.709 14.166C54.709 15.1113 54.487 15.9635 54.043 16.7227C53.599 17.4674 53.0046 18.0618 52.2598 18.5059C51.5293 18.9499 50.7057 19.1719 49.7891 19.1719ZM50.0039 17.7969C50.362 17.7969 50.6628 17.6823 50.9062 17.4531C51.1641 17.224 51.3574 16.8874 51.4863 16.4434C51.6296 15.9993 51.7012 15.4694 51.7012 14.8535C51.7012 13.6217 51.5007 12.6191 51.0996 11.8457C50.7129 11.0723 50.1901 10.6855 49.5312 10.6855C49.0013 10.6855 48.5716 10.9648 48.2422 11.5234C47.9271 12.0677 47.7695 12.8125 47.7695 13.7578C47.7695 14.5169 47.8626 15.2044 48.0488 15.8203C48.2493 16.4362 48.5143 16.9232 48.8438 17.2812C49.1875 17.625 49.5742 17.7969 50.0039 17.7969ZM61.2402 19.1719C60.2376 19.1719 59.3568 18.9714 58.5977 18.5703C57.8385 18.1549 57.2441 17.5892 56.8145 16.873C56.3848 16.1426 56.1699 15.3118 56.1699 14.3809C56.1699 13.321 56.4134 12.4186 56.9004 11.6738C57.3874 10.929 58.0247 10.3633 58.8125 9.97656C59.6003 9.58984 60.4382 9.39648 61.3262 9.39648C62.2858 9.39648 63.1237 9.59701 63.8398 9.99805C64.5703 10.3991 65.1361 10.9648 65.5371 11.6953C65.9525 12.4115 66.1602 13.235 66.1602 14.166C66.1602 15.1113 65.9382 15.9635 65.4941 16.7227C65.0501 17.4674 64.4557 18.0618 63.7109 18.5059C62.9805 18.9499 62.1569 19.1719 61.2402 19.1719ZM61.4551 17.7969C61.8132 17.7969 62.1139 17.6823 62.3574 17.4531C62.6152 17.224 62.8086 16.8874 62.9375 16.4434C63.0807 15.9993 63.1523 15.4694 63.1523 14.8535C63.1523 13.6217 62.9518 12.6191 62.5508 11.8457C62.1641 11.0723 61.6413 10.6855 60.9824 10.6855C60.4525 10.6855 60.0228 10.9648 59.6934 11.5234C59.3783 12.0677 59.2207 12.8125 59.2207 13.7578C59.2207 14.5169 59.3138 15.2044 59.5 15.8203C59.7005 16.4362 59.9655 16.9232 60.2949 17.2812C60.6387 17.625 61.0254 17.7969 61.4551 17.7969ZM67.4062 19L67.3418 18.0117L68.5664 17.6465C68.5951 17.4603 68.6165 17.1667 68.6309 16.7656C68.6452 16.3646 68.6595 15.9206 68.6738 15.4336C68.6882 14.9323 68.6953 14.4525 68.6953 13.9941V11.2441C68.6953 10.7285 68.6882 10.2272 68.6738 9.74023C68.6738 9.23893 68.6667 8.76628 68.6523 8.32227C68.6523 7.87826 68.6452 7.47721 68.6309 7.11914C68.6165 6.74674 68.6022 6.44596 68.5879 6.2168L66.998 6.00195L66.9551 5.07812L71.0156 4.02539L71.6172 4.39062C71.5885 4.79167 71.5671 5.19271 71.5527 5.59375C71.5384 5.99479 71.5241 6.42448 71.5098 6.88281C71.4954 7.34115 71.4883 7.87826 71.4883 8.49414C71.4883 9.11003 71.4883 9.84049 71.4883 10.6855L71.4668 15.541C71.4668 15.8561 71.4668 16.1641 71.4668 16.4648C71.4811 16.7513 71.4954 17.002 71.5098 17.2168C71.5241 17.4173 71.5312 17.5605 71.5312 17.6465L72.8633 18.0117L72.7988 19H67.4062ZM78.9648 19H75.334C75.1191 18.6992 74.9186 18.4414 74.7324 18.2266C74.5605 17.9974 74.3815 17.7754 74.1953 17.5605L71.7031 14.7461H71.166L71.1875 13.9512L71.832 13.8008L74.9902 10.8145L73.5723 10.5781L73.6367 9.56836H78.4062L78.4707 10.5781L77.0527 10.8359L73.5078 13.8008L73.7441 12.8125L77.0312 16.5723C77.3034 16.8874 77.5397 17.1523 77.7402 17.3672C77.9551 17.582 78.1126 17.7396 78.2129 17.8398L79.0293 18.0117L78.9648 19ZM79.2871 19L79.2227 18.0117L80.5547 17.6465C80.569 17.5892 80.5833 17.4603 80.5977 17.2598C80.612 17.0449 80.6263 16.7871 80.6406 16.4863C80.6549 16.1712 80.6621 15.8418 80.6621 15.498L80.6836 13.8867C80.6836 13.6003 80.6764 13.3424 80.6621 13.1133C80.6478 12.8698 80.6263 12.6335 80.5977 12.4043C80.569 12.1608 80.5332 11.9173 80.4902 11.6738L79.1152 11.373V10.4062L82.8965 9.43945L83.498 9.80469L83.3691 11.0508L83.4336 11.0723C83.8919 10.485 84.3646 10.0625 84.8516 9.80469C85.3529 9.53255 85.8757 9.39648 86.4199 9.39648C86.9785 9.39648 87.5013 9.53971 87.9883 9.82617C88.4753 10.0983 88.862 10.5208 89.1484 11.0938C89.4492 11.6523 89.5996 12.3757 89.5996 13.2637L89.6426 15.4766C89.6426 15.9492 89.6497 16.4004 89.6641 16.8301C89.6784 17.2598 89.707 17.5319 89.75 17.6465L90.9316 18.0117L90.8672 19H85.7539L85.6895 18.0117L86.7852 17.6465C86.8138 17.5033 86.8353 17.3171 86.8496 17.0879C86.8639 16.8587 86.8711 16.6009 86.8711 16.3145C86.8854 16.028 86.8926 15.7559 86.8926 15.498L86.8711 13.4785C86.8711 12.9629 86.7923 12.5547 86.6348 12.2539C86.4915 11.9531 86.291 11.7383 86.0332 11.6094C85.7897 11.4661 85.5104 11.3945 85.1953 11.3945C84.8659 11.3945 84.5436 11.4805 84.2285 11.6523C83.9134 11.8099 83.6484 12.0319 83.4336 12.3184V15.4766C83.4336 15.9492 83.4408 16.4004 83.4551 16.8301C83.4837 17.2598 83.5195 17.5319 83.5625 17.6465L84.7441 18.0117L84.6797 19H79.2871ZM91.8984 19L91.834 18.0117L92.9512 17.6465C92.9798 17.5033 93.0013 17.3171 93.0156 17.0879C93.0299 16.8444 93.0371 16.5794 93.0371 16.293C93.0514 16.0065 93.0586 15.7415 93.0586 15.498L93.0156 13.6719C93.0156 13.1276 92.9368 12.6908 92.7793 12.3613C92.6217 12.0176 92.4069 11.7741 92.1348 11.6309C91.8626 11.4733 91.5618 11.3945 91.2324 11.3945C90.8887 11.3945 90.5521 11.4733 90.2227 11.6309C89.9076 11.7741 89.6354 11.9961 89.4062 12.2969L88.7832 11.4805C89.2988 10.793 89.8431 10.2773 90.416 9.93359C91.0033 9.57552 91.6335 9.39648 92.3066 9.39648C92.9941 9.39648 93.5957 9.54688 94.1113 9.84766C94.6413 10.1484 95.0495 10.5924 95.3359 11.1797C95.6224 11.7526 95.7656 12.4401 95.7656 13.2422L95.8086 15.4766C95.8086 15.9492 95.8158 16.4004 95.8301 16.8301C95.8444 17.2598 95.873 17.5319 95.916 17.6465L97.248 18.0117L97.1836 19H91.8984ZM101.523 19.1719C100.865 19.1719 100.292 19.0286 99.8047 18.7422C99.332 18.4557 98.9668 18.112 98.709 17.7109C98.4655 17.3099 98.3438 16.9303 98.3438 16.5723C98.3438 16.0423 98.5013 15.6055 98.8164 15.2617C99.1458 14.918 99.6471 14.6458 100.32 14.4453L103.693 13.457V12.6836C103.693 12.3828 103.593 12.1035 103.393 11.8457C103.206 11.5736 102.956 11.3516 102.641 11.1797C102.326 11.0078 101.989 10.9219 101.631 10.9219C101.402 10.9219 101.237 10.9792 101.137 11.0938C101.051 11.194 100.993 11.4017 100.965 11.7168L100.857 13.0273C100.141 13.1706 99.554 13.1491 99.0957 12.9629C98.6517 12.7624 98.4297 12.4401 98.4297 11.9961C98.4297 11.724 98.5729 11.4447 98.8594 11.1582C99.1458 10.8717 99.4967 10.6068 99.9121 10.3633C100.342 10.1055 100.779 9.89062 101.223 9.71875C101.667 9.53255 102.061 9.42513 102.404 9.39648C103.665 9.39648 104.667 9.6901 105.412 10.2773C106.171 10.8503 106.551 11.6237 106.551 12.5977L106.486 15.584C106.486 15.985 106.493 16.3001 106.508 16.5293C106.536 16.7441 106.587 16.9232 106.658 17.0664L108.055 17.3242V18.2266L106.658 18.8496C106.415 18.9499 106.178 19.0286 105.949 19.0859C105.734 19.1432 105.527 19.1719 105.326 19.1719C104.768 19.1719 104.374 18.8854 104.145 18.3125L103.779 17.3242L104.23 17.4316C103.786 17.9759 103.328 18.4056 102.855 18.7207C102.397 19.0215 101.953 19.1719 101.523 19.1719ZM102.619 17.2383C102.82 17.2383 103.013 17.2025 103.199 17.1309C103.385 17.0449 103.557 16.9232 103.715 16.7656V14.6602L102.254 14.918C101.91 14.9753 101.66 15.0898 101.502 15.2617C101.344 15.4336 101.266 15.6556 101.266 15.9277C101.266 16.2715 101.395 16.5794 101.652 16.8516C101.924 17.1094 102.247 17.2383 102.619 17.2383ZM108.656 19L108.592 18.0117L109.924 17.6465C109.938 17.5892 109.952 17.4603 109.967 17.2598C109.981 17.0449 109.995 16.7871 110.01 16.4863C110.024 16.1712 110.031 15.8418 110.031 15.498L110.053 13.8867C110.053 13.457 110.038 13.0775 110.01 12.748C109.981 12.4043 109.931 12.0462 109.859 11.6738L108.484 11.373V10.4062L112.201 9.43945L112.781 9.80469L112.695 11.502L112.76 11.5234C113.161 10.7214 113.569 10.1771 113.984 9.89062C114.414 9.60417 114.858 9.46094 115.316 9.46094C115.703 9.46094 116.04 9.56836 116.326 9.7832C116.613 9.99805 116.756 10.3346 116.756 10.793C116.756 11.2513 116.598 11.6094 116.283 11.8672C115.982 12.125 115.617 12.2539 115.188 12.2539C114.844 12.2539 114.536 12.1966 114.264 12.082C113.992 11.9674 113.698 11.7526 113.383 11.4375L113.984 11.4805C113.755 11.638 113.54 11.8385 113.34 12.082C113.154 12.3255 112.982 12.6048 112.824 12.9199L112.846 14.6172C112.86 15.1471 112.874 15.627 112.889 16.0566C112.903 16.472 112.917 16.8229 112.932 17.1094C112.946 17.3815 112.953 17.5605 112.953 17.6465L114.822 17.9688L114.758 19H108.656ZM117.314 19L117.25 18.0117L118.475 17.6465C118.503 17.4603 118.525 17.1667 118.539 16.7656C118.553 16.3646 118.568 15.9206 118.582 15.4336C118.596 14.9323 118.604 14.4525 118.604 13.9941V11.2441C118.604 10.7285 118.596 10.2272 118.582 9.74023C118.582 9.23893 118.575 8.76628 118.561 8.32227C118.561 7.87826 118.553 7.47721 118.539 7.11914C118.525 6.74674 118.51 6.44596 118.496 6.2168L116.906 6.00195L116.863 5.07812L120.924 4.02539L121.525 4.39062C121.497 4.79167 121.475 5.19271 121.461 5.59375C121.447 5.99479 121.432 6.42448 121.418 6.88281C121.404 7.34115 121.396 7.87826 121.396 8.49414C121.396 9.11003 121.396 9.84049 121.396 10.6855L121.375 15.541C121.375 15.8561 121.375 16.1641 121.375 16.4648C121.389 16.7513 121.404 17.002 121.418 17.2168C121.432 17.4173 121.439 17.5605 121.439 17.6465L122.771 18.0117L122.707 19H117.314ZM128.873 19H125.242C125.027 18.6992 124.827 18.4414 124.641 18.2266C124.469 17.9974 124.29 17.7754 124.104 17.5605L121.611 14.7461H121.074L121.096 13.9512L121.74 13.8008L124.898 10.8145L123.48 10.5781L123.545 9.56836H128.314L128.379 10.5781L126.961 10.8359L123.416 13.8008L123.652 12.8125L126.939 16.5723C127.212 16.8874 127.448 17.1523 127.648 17.3672C127.863 17.582 128.021 17.7396 128.121 17.8398L128.938 18.0117L128.873 19Z" fill="black"/>
<path d="M19 21L12 16L5 21V5C5 4.46957 5.21071 3.96086 5.58579 3.58579C5.96086 3.21071 6.46957 3 7 3H17C17.5304 3 18.0391 3.21071 18.4142 3.58579C18.7893 3.96086 19 4.46957 19 5V21Z" fill="black" stroke="black" stroke-width="2" stroke-linecap="round" stroke-linejoin="round"/>
</svg>
